<mxfile host="app.diagrams.net" agent="Mozilla/5.0 (Windows NT 10.0; Win64; x64) AppleWebKit/537.36 (KHTML, like Gecko) Chrome/128.0.0.0 Safari/537.36 Edg/128.0.0.0" version="24.7.12">
  <diagram name="Page-1" id="d56feDC4KNZJSRgU4ifq">
    <mxGraphModel dx="1489" dy="877" grid="1" gridSize="10" guides="1" tooltips="1" connect="1" arrows="1" fold="1" page="1" pageScale="1" pageWidth="850" pageHeight="1100" math="0" shadow="0">
      <root>
        <mxCell id="0" />
        <mxCell id="1" parent="0" />
        <mxCell id="EU2bRtTisGBsOxvpFfO8-17" value="" style="rounded=1;whiteSpace=wrap;html=1;strokeWidth=2;fillWeight=4;hachureGap=8;hachureAngle=45;fillColor=#fff2cc;sketch=1;strokeColor=#d6b656;fillStyle=solid;" vertex="1" parent="1">
          <mxGeometry x="336" y="244" width="148" height="80" as="geometry" />
        </mxCell>
        <mxCell id="EU2bRtTisGBsOxvpFfO8-26" value="" style="outlineConnect=0;dashed=0;verticalLabelPosition=bottom;verticalAlign=top;align=center;html=1;shape=mxgraph.aws3.android;fillColor=#FFD44F;gradientColor=none;opacity=40;" vertex="1" parent="1">
          <mxGeometry x="378" y="251" width="56" height="66" as="geometry" />
        </mxCell>
        <mxCell id="EU2bRtTisGBsOxvpFfO8-11" value="Python Flask API&amp;nbsp; (Backend Server)&amp;nbsp;" style="text;align=center;html=1;verticalAlign=middle;whiteSpace=wrap;rounded=0;fontStyle=1;fontColor=#000066;" vertex="1" parent="1">
          <mxGeometry x="340" y="244" width="140" height="80" as="geometry" />
        </mxCell>
        <mxCell id="EU2bRtTisGBsOxvpFfO8-12" value="" style="rounded=1;whiteSpace=wrap;html=1;strokeWidth=2;fillWeight=4;hachureGap=8;hachureAngle=45;fillColor=#e1d5e7;sketch=1;strokeColor=#9673a6;fillStyle=solid;" vertex="1" parent="1">
          <mxGeometry x="120" y="244" width="148" height="80" as="geometry" />
        </mxCell>
        <mxCell id="EU2bRtTisGBsOxvpFfO8-1" value="Actor" style="shape=umlActor;verticalLabelPosition=bottom;verticalAlign=top;html=1;outlineConnect=0;fillColor=#f8cecc;strokeColor=#b85450;fontColor=#FFFFFF;spacing=2;" vertex="1" parent="1">
          <mxGeometry x="17" y="254" width="30" height="60" as="geometry" />
        </mxCell>
        <mxCell id="EU2bRtTisGBsOxvpFfO8-5" value="" style="endArrow=classic;html=1;rounded=0;strokeWidth=3;spacing=2;" edge="1" parent="1">
          <mxGeometry width="50" height="50" relative="1" as="geometry">
            <mxPoint x="57" y="284" as="sourcePoint" />
            <mxPoint x="117" y="284" as="targetPoint" />
          </mxGeometry>
        </mxCell>
        <mxCell id="EU2bRtTisGBsOxvpFfO8-9" value="" style="endArrow=classic;html=1;rounded=0;strokeWidth=3;spacing=2;" edge="1" parent="1">
          <mxGeometry width="50" height="50" relative="1" as="geometry">
            <mxPoint x="272" y="283.5" as="sourcePoint" />
            <mxPoint x="332" y="283.5" as="targetPoint" />
          </mxGeometry>
        </mxCell>
        <mxCell id="EU2bRtTisGBsOxvpFfO8-13" value="" style="verticalLabelPosition=bottom;verticalAlign=top;html=1;shadow=0;dashed=0;strokeWidth=1;shape=mxgraph.android.phone2;strokeColor=#6c8ebf;fillColor=#dae8fc;" vertex="1" parent="1">
          <mxGeometry x="12" y="244" width="40" height="80" as="geometry" />
        </mxCell>
        <mxCell id="EU2bRtTisGBsOxvpFfO8-15" value="Flutter &lt;span class=&quot;hljs-operator&quot;&gt;&amp;amp;&lt;/span&gt; Dart App&lt;div&gt;(Mobile &lt;span class=&quot;hljs-keyword&quot;&gt;User&lt;/span&gt; Interface)&amp;nbsp;&lt;/div&gt;" style="text;align=center;html=1;verticalAlign=middle;whiteSpace=wrap;rounded=0;fillColor=none;fontStyle=1;fontColor=#000066;dashed=1;dashPattern=12 12;strokeWidth=6;perimeterSpacing=5;" vertex="1" parent="1">
          <mxGeometry x="122.25" y="244" width="143.5" height="80" as="geometry" />
        </mxCell>
        <mxCell id="EU2bRtTisGBsOxvpFfO8-20" value="" style="endArrow=classic;html=1;rounded=0;strokeWidth=3;spacing=2;" edge="1" parent="1">
          <mxGeometry width="50" height="50" relative="1" as="geometry">
            <mxPoint x="490" y="283.5" as="sourcePoint" />
            <mxPoint x="550" y="283.5" as="targetPoint" />
          </mxGeometry>
        </mxCell>
        <mxCell id="EU2bRtTisGBsOxvpFfO8-21" value="" style="rounded=1;whiteSpace=wrap;html=1;strokeWidth=2;fillWeight=4;hachureGap=8;hachureAngle=45;fillColor=#e1d5e7;sketch=1;strokeColor=#9673a6;fillStyle=solid;" vertex="1" parent="1">
          <mxGeometry x="364" y="420" width="190" height="113" as="geometry" />
        </mxCell>
        <mxCell id="EU2bRtTisGBsOxvpFfO8-22" value="" style="rounded=1;whiteSpace=wrap;html=1;strokeWidth=2;fillWeight=4;hachureGap=8;hachureAngle=45;fillColor=#e1d5e7;sketch=1;strokeColor=#9673a6;fillStyle=solid;" vertex="1" parent="1">
          <mxGeometry x="554" y="244" width="148" height="80" as="geometry" />
        </mxCell>
        <mxCell id="EU2bRtTisGBsOxvpFfO8-29" value="" style="shape=image;html=1;verticalAlign=top;verticalLabelPosition=bottom;labelBackgroundColor=#ffffff;imageAspect=0;aspect=fixed;image=https://cdn2.iconfinder.com/data/icons/boxicons-logos/24/bxl-firebase-128.png;imageBackground=none;opacity=10;" vertex="1" parent="1">
          <mxGeometry x="599" y="259" width="58" height="58" as="geometry" />
        </mxCell>
        <mxCell id="EU2bRtTisGBsOxvpFfO8-24" value="Firebase Database&amp;nbsp;&lt;div&gt;(Realtime Database &lt;span class=&quot;hljs-operator&quot;&gt;/&lt;/span&gt; Firestore)&amp;nbsp;&lt;/div&gt;" style="text;strokeColor=none;align=center;fillColor=none;html=1;verticalAlign=middle;whiteSpace=wrap;rounded=0;fontStyle=1;fontColor=#000066;" vertex="1" parent="1">
          <mxGeometry x="542" y="224" width="172" height="120" as="geometry" />
        </mxCell>
        <mxCell id="EU2bRtTisGBsOxvpFfO8-31" value="" style="shape=image;html=1;verticalAlign=top;verticalLabelPosition=bottom;labelBackgroundColor=#ffffff;imageAspect=0;aspect=fixed;image=https://cdn4.iconfinder.com/data/icons/medic-two-tone/32/Hospital_-128.png" vertex="1" parent="1">
          <mxGeometry x="180" y="440" width="74" height="74" as="geometry" />
        </mxCell>
        <mxCell id="EU2bRtTisGBsOxvpFfO8-34" value="" style="endArrow=classic;html=1;rounded=0;strokeWidth=3;spacing=2;" edge="1" parent="1">
          <mxGeometry width="50" height="50" relative="1" as="geometry">
            <mxPoint x="265.75" y="476.5" as="sourcePoint" />
            <mxPoint x="350" y="477" as="targetPoint" />
          </mxGeometry>
        </mxCell>
        <mxCell id="EU2bRtTisGBsOxvpFfO8-36" value="" style="shape=image;html=1;verticalAlign=top;verticalLabelPosition=bottom;labelBackgroundColor=#ffffff;imageAspect=0;aspect=fixed;image=https://cdn4.iconfinder.com/data/icons/scripting-and-programming-languages/512/js-128.png;opacity=15;" vertex="1" parent="1">
          <mxGeometry x="423.75" y="441.75" width="70.5" height="70.5" as="geometry" />
        </mxCell>
        <mxCell id="EU2bRtTisGBsOxvpFfO8-35" value="&amp;nbsp;HTML&lt;span class=&quot;hljs-operator&quot;&gt;/&lt;/span&gt;CSS&lt;span class=&quot;hljs-operator&quot;&gt;/&lt;/span&gt;Bootstrap&lt;span class=&quot;hljs-operator&quot;&gt;/&lt;/span&gt;Javascript&lt;div&gt;&amp;nbsp;(Website &lt;span class=&quot;hljs-keyword&quot;&gt;User&lt;/span&gt; Interface)&amp;nbsp;&lt;/div&gt;" style="text;strokeColor=none;align=center;fillColor=none;html=1;verticalAlign=middle;whiteSpace=wrap;rounded=0;fontStyle=1;fontColor=#000066;" vertex="1" parent="1">
          <mxGeometry x="370.5" y="429.12" width="171.5" height="95.75" as="geometry" />
        </mxCell>
        <mxCell id="EU2bRtTisGBsOxvpFfO8-37" value="" style="edgeStyle=segmentEdgeStyle;endArrow=classic;html=1;curved=0;rounded=0;endSize=8;startSize=8;strokeWidth=3;entryX=0.512;entryY=0.967;entryDx=0;entryDy=0;entryPerimeter=0;" edge="1" parent="1" target="EU2bRtTisGBsOxvpFfO8-24">
          <mxGeometry width="50" height="50" relative="1" as="geometry">
            <mxPoint x="562" y="480" as="sourcePoint" />
            <mxPoint x="630" y="350" as="targetPoint" />
            <Array as="points">
              <mxPoint x="630" y="480" />
            </Array>
          </mxGeometry>
        </mxCell>
        <mxCell id="EU2bRtTisGBsOxvpFfO8-38" value="" style="edgeStyle=segmentEdgeStyle;endArrow=classic;html=1;curved=0;rounded=0;endSize=8;startSize=8;strokeWidth=3;" edge="1" parent="1">
          <mxGeometry width="50" height="50" relative="1" as="geometry">
            <mxPoint x="640" y="162" as="sourcePoint" />
            <mxPoint x="33.719970703125" y="242" as="targetPoint" />
          </mxGeometry>
        </mxCell>
        <mxCell id="EU2bRtTisGBsOxvpFfO8-39" value="" style="endArrow=none;html=1;rounded=0;strokeWidth=3;" edge="1" parent="1">
          <mxGeometry width="50" height="50" relative="1" as="geometry">
            <mxPoint x="639" y="231" as="sourcePoint" />
            <mxPoint x="639" y="161" as="targetPoint" />
            <Array as="points">
              <mxPoint x="639" y="241" />
            </Array>
          </mxGeometry>
        </mxCell>
      </root>
    </mxGraphModel>
  </diagram>
</mxfile>
